<?xml version="1.0" encoding="utf-8"?>
<!-- Generator: Adobe Illustrator 27.4.1, SVG Export Plug-In . SVG Version: 6.00 Build 0)  -->
<svg version="1.1"
	 id="svg1" xmlns:svg="http://www.w3.org/2000/svg" xmlns:sodipodi="http://sodipodi.sourceforge.net/DTD/sodipodi-0.dtd" xmlns:inkscape="http://www.inkscape.org/namespaces/inkscape"
	 xmlns="http://www.w3.org/2000/svg" xmlns:xlink="http://www.w3.org/1999/xlink" x="0px" y="0px" viewBox="0 0 561.6 561.6"
	 style="enable-background:new 0 0 561.6 561.6;" xml:space="preserve">
<style type="text/css">
	.st0{fill:#FFD700;}
</style>
<sodipodi:namedview  bordercolor="#ffffff" borderopacity="1" id="namedview1" inkscape:current-layer="layer1" inkscape:cx="3049.0444" inkscape:cy="1086.116" inkscape:deskcolor="#505050" inkscape:document-units="mm" inkscape:export-bgcolor="#ffffff00" inkscape:pagecheckerboard="1" inkscape:pageopacity="0" inkscape:showpageshadow="0" inkscape:window-height="1000" inkscape:window-maximized="0" inkscape:window-width="958" inkscape:window-x="953" inkscape:window-y="0" inkscape:zoom="0.70710678" pagecolor="#505050" showgrid="false">
	
		<inkscape:grid  color="#0099e5" dotted="false" empcolor="#0099e5" empopacity="0.30196078" empspacing="5" gridanglex="30" gridanglez="30" id="grid8" opacity="0.14901961" originx="-2179.1439" originy="-1198.3313" spacingx="0.99999998" spacingy="1" units="mm" visible="false">
		</inkscape:grid>
	
		<inkscape:page  bleed="0" height="292.90643" id="page4" inkscape:export-filename="Page 6.svg" inkscape:export-xdpi="96" inkscape:export-ydpi="96" margin="0" width="247.48621" x="-4.1792006e-05" y="2.1404437e-06">
		</inkscape:page>
</sodipodi:namedview>
<g>
	<path class="st0" d="M549.4,426.6L445.2,246L340.9,65.5c-12.4-21.4-35.4-34.7-60.2-34.7s-47.8,13.3-60.2,34.7L116.4,246L12.1,426.6
		c-25.9,44.8,8.4,104.2,60.2,104.2h208.5h208.5C541,530.7,575.3,471.4,549.4,426.6z M489.2,508.5H280.8H72.3
		c-35.7,0-58.8-39.9-40.9-70.9l104.2-180.5L239.9,76.6C248.3,62,264,53,280.8,53l0,0c16.9,0,32.5,9,40.9,23.6l104.2,180.5
		l104.2,180.5C548,468.6,525,508.5,489.2,508.5z"/>
</g>
<g>
	<g>
		<path class="st0" d="M507.1,451L402.8,270.5L298.6,89.9c-3.7-6.4-10.5-10.3-17.8-10.3l0,0c-7.4,0-14.1,3.9-17.8,10.3L158.7,270.5
			L54.5,451c-8.2,14.3,1.3,30.8,17.8,30.8h208.5h208.5C505.7,481.8,515.3,465.3,507.1,451z M305.5,442.3h-58.8v-47.5h58.8V442.3z
			 M294.2,368.2h-36.5l-13.3-189h63.1L294.2,368.2z"/>
	</g>
</g>
</svg>
